<?xml version="1.0" encoding="utf-8"?>
<!-- Generator: Adobe Illustrator 28.0.0, SVG Export Plug-In . SVG Version: 6.00 Build 0)  -->
<svg version="1.1" id="_Слой_1" xmlns="http://www.w3.org/2000/svg" xmlns:xlink="http://www.w3.org/1999/xlink" x="0px"
	 y="0px" viewBox="0 0 889.3 794.8" style="enable-background:new 0 0 889.3 794.8;" xml:space="preserve">
<style type="text/css">
	.st0{fill:#E8E8E8;}
	.st1{fill:#930000;}
</style>
<g>
	<g>
		<polygon class="st0" points="98,437.2 89,437.2 89,374.5 56.4,374.5 56.4,437.2 56.4,467 89,467 128.6,467 		"/>
		<g>
			<path class="st1" d="M173.9,378.5c0-3.7-0.2-22-11.1-34c-2.1-2.3-7.1-7.5-14.7-11.1c-12.8-6.1-13-6.1-78.7-6.6L10,326.2V467h37.3
				V359.9h32c17.8,0,34.2,0.5,37,0.9c10.8,2,17.3,8.9,18.3,19.4c0.7,6.8-0.9,12.4-4.5,16.4c-4.1,4.7-9.1,6.2-20.5,6.5l-9.7,0.2
				c0,7-0.1,16.9,0,23.9c15.9,0,31.8,0,47.7,0C151,424.6,173.6,406.6,173.9,378.5L173.9,378.5z"/>
			<polygon class="st1" points="180.6,467 141.2,467.2 110.5,437.3 152.9,437.2 			"/>
		</g>
	</g>
	<g>
		<path class="st0" d="M650.5,385.8c-7.2,1.4-11.8,3.9-16.1,8.8c-4.9,5.7-5.5,9.5-5.5,34.3c0,18.4,0.4,21.8,2.2,25.3
			c6.1,11.5,13.2,14.5,33.4,13.9c16.6-0.5,22.7-2.8,28-10.7l3.4-4.9l0.4-22.5c0.2-14.7-0.1-24.3-0.9-27.7c-1.8-6.4-8.7-13.4-15-15.2
			C674.2,385.5,657,384.6,650.5,385.8L650.5,385.8z M675.6,403.5l3.9,3.4l0.5,16.8c0.6,25.6-1.3,29.3-14.8,30.1
			c-6.1,0.4-8.9,0-12.1-1.6c-6.6-3.4-7.2-5.7-6.8-27.2l0.4-19.3l3.3-2.8c2.9-2.5,4.5-2.8,12.6-2.8
			C671.1,400.1,672,400.3,675.6,403.5L675.6,403.5z"/>
		<path class="st1" d="M202,426.6v40.6h16.5v-27.1h11.8l8.9,13.5l9.1,13.5H268l-9.4-14.1c-5.2-7.8-9.4-14.4-9.4-14.7
			c0-0.4,0.8-0.6,1.8-0.6s3.8-2,6.4-4.5c5.5-5.3,7.5-11.8,6.9-22.6c-0.7-12.7-6.5-20.5-17.3-23.6c-2.4-0.6-13.4-1.2-24.5-1.2H202
			V426.6L202,426.6z M243.3,403.5c2.9,2.9,3.4,4.4,3.4,9.8s-0.5,6.9-3.1,9.3c-2.7,2.5-4.2,2.8-14.1,3.2l-11.1,0.5v-26.1h10.7
			C239.4,400.1,240,400.2,243.3,403.5L243.3,403.5z"/>
		<path class="st1" d="M278.5,426.6v40.6h50.6V453h-35l-0.2-10l-0.2-10h31.9v-14.1h-31.9l0.2-9.4l0.2-9.4h35V386h-50.6V426.6z"/>
		<path class="st1" d="M345.6,426.6v40.9l22.7-0.5c22.3-0.4,22.7-0.4,28.1-3.6c6-3.5,9.9-8.2,11.7-14.1c1.5-5.4,1.4-38.9-0.2-44.4
			c-1.9-6.1-7.2-12.5-13.2-15.7c-4.5-2.2-7.1-2.6-27-2.9l-22.1-0.5C345.6,385.7,345.6,426.6,345.6,426.6z M388.4,404.5l3.8,3.8
			l0.4,17c0.6,24.7-1.6,27.8-20.4,27.8h-10v-53.2l11.2,0.5C384.1,400.8,384.7,400.9,388.4,404.5L388.4,404.5z"/>
		<path class="st0" d="M443.6,426.8l0.4,41l27.4,0.4l27.3,0.5V453H461v-67.1h-17.7L443.6,426.8L443.6,426.8z"/>
		<path class="st0" d="M485.8,386.7c0,0.8,17,31.6,23.4,42.2c4.2,6.9,4.2,7.2,4.8,23l0.6,15.9h17.1v-30.4l13.7-24.8
			c7.5-13.7,14-25.2,14.3-25.8c0.2-0.5-3.8-0.8-8.9-0.8h-9.3l-5.9,11.4c-3.3,6.4-7.5,14.4-9.4,17.8l-3.4,6.4l-9.3-17.8l-9.3-17.8
			H495C489.9,385.9,485.8,386.3,485.8,386.7L485.8,386.7z"/>
		<path class="st0" d="M577,387.7c-5.7,2-11.9,8.7-13.5,14.6c-0.6,2.4-1.2,14-1.2,26c0.1,20.4,0.2,22.1,2.8,27.1
			c1.8,3.6,4.5,6.5,8.4,8.8l5.7,3.5H617l0.4-7.4l0.4-7.3h-15.9c-15.1,0-16-0.1-19.2-2.8l-3.3-2.8v-40.3l3.3-3.2
			c3.2-3.2,3.6-3.3,18.5-3.6l15.3-0.5l0.1-3.1c0-1.8,0.2-4.9,0.4-7.1l0.5-3.8h-17.9C587.4,386,580.2,386.5,577,387.7L577,387.7z"/>
		<path class="st0" d="M710.7,427.1v41.2l8.4-0.5l8.4-0.6l-0.1-13.5l-0.2-13.7h12.7l8.6,13.5l8.6,13.5l7.2,0.1
			c3.9,0,8.4,0.2,9.9,0.4c1.4,0.2,2.6,0,2.6-0.5c0-0.4-4-6.7-8.8-14.1s-8.8-13.8-8.8-14.4c0-0.5,0.8-0.9,1.8-0.9
			c3.4,0,9.9-7.1,11.9-13.2c2.2-6.7,1.8-21-0.7-25.9c-5.5-10.6-12.2-12.7-40.3-12.7h-21L710.7,427.1L710.7,427.1z M752.6,402.8
			c2.6,2.2,3.3,4,3.8,9.2c0.5,5.7,0.1,6.9-2.5,10c-2.8,3.3-3.4,3.4-14.8,3.8l-11.9,0.5v-26.1h11.1
			C748.2,400.1,749.8,400.3,752.6,402.8L752.6,402.8z"/>
		<path class="st0" d="M788.4,426.8v41h16.5V386h-16.5C788.4,385.9,788.4,426.8,788.4,426.8z"/>
		<path class="st0" d="M833.8,387.7c-12.2,4.4-17.4,19.7-11,32.4c3.2,6.4,8.7,9.8,20.3,12.4c4.6,1.1,10,2.4,12.1,3.1
			c6.9,2.2,9.1,11.1,3.8,15.8c-1.8,1.6-4.9,1.9-19.8,1.9l-17.7-0.1l-0.5,7.2c-0.1,3.9-0.1,7.4,0.1,7.7c1.1,1.1,37.6,0.4,41.9-0.8
			c6-1.6,11.9-6,14.3-10.8c2.4-4.4,2.6-17.3,0.5-22.6c-3.1-8-8.2-11.3-23.2-14.8c-12.8-3.1-16.8-5.1-17-8.5
			c-0.2-4.6,0.2-6.1,2.7-8.2c2-1.6,4.8-2,18.1-2h15.8v-14.1h-17.9C844.2,386,836.9,386.5,833.8,387.7L833.8,387.7z"/>
	</g>
</g>
</svg>
