<?xml version="1.0" encoding="utf-8"?>
<!-- Generator: Adobe Illustrator 28.0.0, SVG Export Plug-In . SVG Version: 6.00 Build 0)  -->
<svg version="1.1" id="_Слой_1" xmlns="http://www.w3.org/2000/svg" xmlns:xlink="http://www.w3.org/1999/xlink" x="0px"
	 y="0px" viewBox="0 0 889.3 794.8" style="enable-background:new 0 0 889.3 794.8;" xml:space="preserve">
<style type="text/css">
	.st0{fill:#E8E8E8;}
	.st1{fill:#930000;}
</style>
<g>
	<polygon class="st0" points="458.2,601 413,601 413,285.8 249.1,285.8 249.1,601 249.1,750.8 413,750.8 612,750.8 	"/>
	<g>
		<path class="st1" d="M839.8,305.9c0-18.6-1-110.6-55.8-170.9c-10.6-11.6-35.7-37.7-73.9-55.8C645.7,48.5,644.7,48.5,314.5,46
			L15.9,43v707.8h187.5V212.4h160.9c89.5,0,171.9,2.5,186,4.5c54.3,10.1,87,44.7,92,97.5c3.5,34.2-4.5,62.3-22.6,82.4
			c-20.6,23.6-45.7,31.2-103.1,32.7l-48.8,1c0,35.2-0.5,85,0,120.1c79.9,0,159.9,0,239.8,0C724.7,537.7,838.3,447.2,839.8,305.9
			L839.8,305.9z"/>
		<polygon class="st1" points="873.4,750.8 675.4,751.8 521.1,601.5 734.2,601 		"/>
	</g>
</g>
<g>
	<path class="st0" d="M576.2,890.8c-7.2,1.4-11.8,3.9-16.1,8.8c-4.9,5.7-5.5,9.5-5.5,34.3c0,18.4,0.4,21.8,2.2,25.3
		c6.1,11.5,13.2,14.5,33.4,13.9c16.6-0.5,22.7-2.8,28-10.7l3.4-4.9L622,935c0.2-14.7-0.1-24.3-0.9-27.7c-1.8-6.4-8.7-13.4-15-15.2
		C599.9,890.5,582.7,889.6,576.2,890.8L576.2,890.8z M601.3,908.5l3.9,3.4l0.5,16.8c0.6,25.6-1.3,29.3-14.8,30.1
		c-6.1,0.4-8.9,0-12.1-1.6c-6.6-3.4-7.2-5.7-6.8-27.2l0.4-19.3l3.3-2.8c2.9-2.5,4.5-2.8,12.6-2.8
		C596.8,905.1,597.7,905.3,601.3,908.5L601.3,908.5z"/>
	<path class="st1" d="M127.7,931.6v40.6h16.5v-27.1H156l8.9,13.5l9.1,13.5h19.7l-9.4-14.1c-5.2-7.8-9.4-14.4-9.4-14.7
		c0-0.4,0.8-0.6,1.8-0.6s3.8-2,6.4-4.5c5.5-5.3,7.5-11.8,6.9-22.6c-0.7-12.7-6.5-20.5-17.3-23.6c-2.4-0.6-13.4-1.2-24.5-1.2h-20.5
		V931.6L127.7,931.6z M169,908.5c2.9,2.9,3.4,4.4,3.4,9.8s-0.5,6.9-3.1,9.3c-2.7,2.5-4.2,2.8-14.1,3.2l-11.1,0.5v-26.1h10.7
		C165.1,905.1,165.7,905.2,169,908.5L169,908.5z"/>
	<path class="st1" d="M204.2,931.6v40.6h50.6V958h-35l-0.2-10l-0.2-10h31.9v-14.1h-31.9l0.2-9.4l0.2-9.4h35V891h-50.6V931.6z"/>
	<path class="st1" d="M271.3,931.6v40.9L294,972c22.3-0.4,22.7-0.4,28.1-3.6c6-3.5,9.9-8.2,11.7-14.1c1.5-5.4,1.4-38.9-0.2-44.4
		c-1.9-6.1-7.2-12.5-13.2-15.7c-4.5-2.2-7.1-2.6-27-2.9l-22.1-0.5C271.3,890.7,271.3,931.6,271.3,931.6z M314.1,909.5l3.8,3.8
		l0.4,17c0.6,24.7-1.6,27.8-20.4,27.8h-10v-53.2l11.2,0.5C309.8,905.8,310.4,905.9,314.1,909.5L314.1,909.5z"/>
	<path class="st0" d="M369.3,931.8l0.4,41l27.4,0.4l27.3,0.5V958h-37.7v-67.1H369L369.3,931.8L369.3,931.8z"/>
	<path class="st0" d="M411.5,891.7c0,0.8,17,31.6,23.4,42.2c4.2,6.9,4.2,7.2,4.8,23l0.6,15.9h17.1v-30.4l13.7-24.8
		c7.5-13.7,14-25.2,14.3-25.8c0.2-0.5-3.8-0.8-8.9-0.8h-9.3l-5.9,11.4c-3.3,6.4-7.5,14.4-9.4,17.8l-3.4,6.4l-9.3-17.8l-9.3-17.8
		h-9.2C415.6,890.9,411.5,891.3,411.5,891.7L411.5,891.7z"/>
	<path class="st0" d="M502.7,892.7c-5.7,2-11.9,8.7-13.5,14.6c-0.6,2.4-1.2,14-1.2,26c0.1,20.4,0.2,22.1,2.8,27.1
		c1.8,3.6,4.5,6.5,8.4,8.8l5.7,3.5h37.8l0.4-7.4l0.4-7.3h-15.9c-15.1,0-16-0.1-19.2-2.8l-3.3-2.8v-40.3l3.3-3.2
		c3.2-3.2,3.6-3.3,18.5-3.6l15.3-0.5l0.1-3.1c0-1.8,0.2-4.9,0.4-7.1l0.5-3.8h-17.9C513.1,891,505.9,891.5,502.7,892.7L502.7,892.7z"
		/>
	<path class="st0" d="M636.4,932.1v41.2l8.4-0.5l8.4-0.6l-0.1-13.5l-0.2-13.7h12.7l8.6,13.5l8.6,13.5l7.2,0.1c3.9,0,8.4,0.2,9.9,0.4
		c1.4,0.2,2.6,0,2.6-0.5c0-0.4-4-6.7-8.8-14.1c-4.8-7.4-8.8-13.8-8.8-14.4c0-0.5,0.8-0.9,1.8-0.9c3.4,0,9.9-7.1,11.9-13.2
		c2.2-6.7,1.8-21-0.7-25.9c-5.5-10.6-12.2-12.7-40.3-12.7h-21L636.4,932.1L636.4,932.1z M678.3,907.8c2.6,2.2,3.3,4,3.8,9.2
		c0.5,5.7,0.1,6.9-2.5,10c-2.8,3.3-3.4,3.4-14.8,3.8l-11.9,0.5v-26.1H664C673.9,905.1,675.5,905.3,678.3,907.8L678.3,907.8z"/>
	<path class="st0" d="M714.1,931.8v41h16.5V891h-16.5C714.1,890.9,714.1,931.8,714.1,931.8z"/>
	<path class="st0" d="M759.5,892.7c-12.2,4.4-17.4,19.7-11,32.4c3.2,6.4,8.7,9.8,20.3,12.4c4.6,1.1,10,2.4,12.1,3.1
		c6.9,2.2,9.1,11.1,3.8,15.8c-1.8,1.6-4.9,1.9-19.8,1.9l-17.7-0.1l-0.5,7.2c-0.1,3.9-0.1,7.4,0.1,7.7c1.1,1.1,37.6,0.4,41.9-0.8
		c6-1.6,11.9-6,14.3-10.8c2.4-4.4,2.6-17.3,0.5-22.6c-3.1-8-8.2-11.3-23.2-14.8c-12.8-3.1-16.8-5.1-17-8.5c-0.2-4.6,0.2-6.1,2.7-8.2
		c2-1.6,4.8-2,18.1-2h15.8v-14.1H782C769.9,891,762.6,891.5,759.5,892.7L759.5,892.7z"/>
</g>
</svg>
